<svg xmlns="http://www.w3.org/2000/svg" viewBox="0 0 591.51 349.92"><defs><style>.cls-1{fill:#666;}</style></defs><title>Asset 1</title><g id="Layer_2" data-name="Layer 2"><g id="Draw_Layer" data-name="Draw Layer"><path class="cls-1" d="M368.17,0l-5.85,0c-1.49,0-3,.09-4.46.15-1.32.06-2.64.1-4,.2-1.75.14-3.52.22-5.27.41l-5.1.57c-1.81.2-3.62.51-5.43.78-3,.45-6,1.08-9,1.71s-5.87,1.29-8.8,2C313,7.66,305.87,9.8,298.64,11.7c-3.6.95-7.26,1.71-10.91,2.41s-7.37,1.33-11.08,1.91h-.08c-3,.39-5.91.79-8.89.93-3.26.16-6.5.06-9.75-.06a89,89,0,0,0-9.41-.06c-3.25.22-6.47.82-9.7,1.28-4.47.55-8.95,1-13.4,1.63-2.27.32-4.55.62-6.8,1.08-1.91.39-3.79.89-5.72,1.2-1,.12-2,.21-2.93.23a3.06,3.06,0,0,0-2-1.61c-1.94-.49-3.88-.94-5.82-1.39-1.37-.32-2.75-.66-4.13-.91l-5.84-1.07c-1.48-.27-3-.46-4.47-.69q-9.45-1.42-19-2.31c-2.93-.27-5.87-.56-8.81-.7l-5.45-.26c-1.58-.07-3.18,0-4.76,0-1.18,0-2.36,0-3.53.05l-6.47.44c-1.23.08-2.44.28-3.66.45l-5.82.8c-.4.05-.8.16-1.19.25l-3.12.66c-1.37.29-2.77.52-4.12.91l-5.73,1.64c-1.18.34-2.3.72-3.45,1.14l-5.33,1.92c-1.5.54-3,1.26-4.43,1.89s-2.74,1.11-4.06,1.76l-5.22,2.56c-2.61,1.29-5.13,2.75-7.67,4.16-.46.25-.89.57-1.34.86l-2.75,1.76c-1.11.7-2.22,1.38-3.29,2.15-2.78,2-5.58,4-8.24,6.16l-4.44,3.63c-1.12.91-2.15,1.95-3.22,2.92s-2.11,1.84-3.1,2.83l-4.24,4.25c-2.27,2.28-4.38,4.7-6.54,7.09-.81.9-1.57,1.86-2.34,2.79-1.06,1.28-2.16,2.53-3.18,3.84-1.94,2.5-3.94,5-5.79,7.53L34,82.64c-.76,1.06-1.45,2.17-2.16,3.26l-3,4.63C28,91.72,27.3,93,26.57,94.19L23.9,98.64c-.8,1.34-1.5,2.74-2.25,4.1-.66,1.2-1.37,2.38-2,3.61l-2.53,5c-1.48,2.95-2.82,6-4.19,9s-2.61,6.13-3.88,9.2C7.94,132.27,7,135.08,6,137.84c-.18.48-.3,1-.45,1.49l-.93,3.07c-.69,2.29-1.32,4.56-1.87,6.89-.48,2-.84,4.1-1.17,6.17-.27,1.71-.55,3.45-.7,5.18q-.25,2.9-.5,5.8c-.21,2.48-.33,5-.36,7.46a56.57,56.57,0,0,0,1.58,13.46,52.13,52.13,0,0,0,4.32,11.39,58.46,58.46,0,0,0,7.39,10.82c5.27,6.31,12.24,11.08,19.48,14.82a104.43,104.43,0,0,0,15.39,6.31c2.89.95,5.82,1.73,8.75,2.52,3.86,1,7.74,2,11.63,2.91,4.39,1.07,8.78,2.16,13.15,3.32l2.5.67c.85.23,1.68.55,2.52.82l3.89,1.27c1.8.59,3.57,1.29,5.32,2a83.06,83.06,0,0,1,8.56,4.36,79.24,79.24,0,0,1,7.51,5.07q2.19,1.72,4.29,3.56c1.63,1.44,3.16,3,4.68,4.54s2.76,2.95,4.13,4.43c1.94,2.1,3.81,4.26,5.71,6.39,4.16,4.64,8.36,9.27,12.82,13.63l4.09,4c1.09,1.06,2.25,2.05,3.38,3.08,2.5,2.28,5.08,4.45,7.66,6.64,2.27,1.93,4.66,3.73,7,5.58,1.2.94,2.45,1.81,3.67,2.71s2.39,1.8,3.63,2.64c2.61,1.78,5.2,3.58,7.89,5.25s5.45,3.39,8.24,5l5.08,2.92c1.19.69,2.43,1.3,3.64,1.95s2.55,1.41,3.85,2l5.17,2.49c2.92,1.41,5.91,2.66,8.89,3.95s6.3,2.49,9.47,3.7c3,1.13,6,2.08,9.06,3.1,1.08.36,2.18.67,3.27,1l5.55,1.66c1.39.41,2.82.73,4.22,1.09s2.69.75,4.05,1c3.1.62,6.19,1.31,9.32,1.74l5.81.8c1.37.19,2.73.29,4.11.39l5.77.45c1.26.1,2.54.12,3.8.17,3.3.14,6.61.25,9.91.3,1.43,0,2.88.1,4.31.06l5.87-.14c3.27-.08,6.52-.35,9.77-.58s6.37-.64,9.55-1,6.52-.9,9.77-1.37c2.68-.38,5.36-.84,8-1.33,3.17-.59,6.33-1.17,9.48-1.86l5.05-1.11c1.52-.33,3-.79,4.54-1.18,1.32-.35,2.67-.66,4-1l5.56-1.65c3.19-.95,6.35-2,9.52-3,6.12-1.95,12.14-4.14,18.17-6.35,5.57-2,11.07-4.32,16.61-6.43,3-1.13,5.9-2.29,8.87-3.37L429,316c3.28-1.2,6.6-2.27,9.89-3.41,3.07-1.05,6.2-2,9.29-2.95,6.07-1.92,12.22-3.61,18.36-5.32,12.09-3.38,24.33-6.22,36.54-9.15,6.12-1.47,12.19-3.07,18.26-4.71,3.07-.83,6.11-1.8,9.14-2.75s6.07-2.09,9.09-3.17,5.72-2.3,8.57-3.48c1.33-.55,2.62-1.18,3.92-1.8,2-.94,4-1.87,5.94-2.87a73.35,73.35,0,0,0,10.38-6.54,55.83,55.83,0,0,0,9-8.41,61.13,61.13,0,0,0,6.67-9.55,51.73,51.73,0,0,0,4.72-11.77,64.23,64.23,0,0,0,1.5-7.45c.25-1.62.5-3.22.64-4.85s.32-3.14.39-4.7q.12-2.91.25-5.81c.06-1.45,0-2.92,0-4.37s-.05-2.79-.16-4.2q-.19-2.57-.37-5.14c0-.59-.15-1.17-.22-1.75-.16-1.25-.32-2.49-.48-3.73-.36-2.88-.93-5.72-1.46-8.58a75.49,75.49,0,0,0-2.71-10.07,83.79,83.79,0,0,0-4.45-10.77,65,65,0,0,0-6.32-10.13c-1-1.33-2-2.63-3.09-3.91s-2.22-2.66-3.42-3.88l-3.33-3.38c-.78-.79-1.54-1.61-2.34-2.37-4.09-3.84-8.26-7.62-12.25-11.59l-3.24-3.22c-1-1-2-2.19-3-3.27-1.8-2-3.49-4.05-5.2-6.12l-2.53-3.38a74.62,74.62,0,0,1-4.41-6.65,108.75,108.75,0,0,1-5.12-10.26c-1.14-2.84-2.27-5.68-3.32-8.55s-2.09-5.73-3.14-8.59-2.29-6-3.49-9c-1.05-2.6-2.18-5.15-3.46-7.64a69.25,69.25,0,0,0-7.14-11A94.07,94.07,0,0,0,498,46c-1.67-1.62-3.43-3.1-5.2-4.59-1.27-1.07-2.52-2.2-3.86-3.2l-4.23-3.14c-.88-.65-1.74-1.32-2.66-1.92l-5.29-3.47c-1-.65-2-1.22-3-1.82-1.36-.79-2.69-1.65-4.09-2.37-2.77-1.43-5.51-2.91-8.34-4.21l-5.2-2.41c-1.34-.62-2.73-1.13-4.09-1.69L447,15.15c-1.29-.53-2.63-1-3.94-1.43L438.22,12c-1.45-.52-3-.93-4.43-1.38-1.3-.4-2.59-.86-3.9-1.21l-5.53-1.48c-3.13-.84-6.29-1.56-9.45-2.3-1.16-.27-2.32-.5-3.48-.74-1.54-.32-3.07-.69-4.62-.95-3.11-.53-6.22-1.1-9.35-1.53l-5.76-.79c-1.67-.23-3.36-.37-5-.54-1.28-.13-2.57-.29-3.85-.37L376.51.28c-1.2-.07-2.39-.1-3.58-.14-1.55,0-3.11-.14-4.66-.14ZM277.4,15.92l-.75.1.75-.1Zm-48.86,9.74h0Zm-.09,0-.54.06.33,0,.21,0Zm-.35,0-.26,0-.13,0,.32,0ZM43.35,80.45l-.16.2.16-.2Z"/></g></g></svg>