<svg xmlns="http://www.w3.org/2000/svg" viewBox="0 0 661.07 402.43"><defs><style>.cls-1{fill:#232323;}</style></defs><title>Asset 1</title><g id="Layer_2" data-name="Layer 2"><g id="Draw_Layer" data-name="Draw Layer"><path class="cls-1" d="M478,.06l-5.43.13c-2,0-4,.22-6.06.34-1.43.08-2.85.23-4.27.36-1.65.15-3.3.28-4.94.5l-6.19.82c-2.12.28-4.22.68-6.32,1-1.37.23-2.72.49-4.08.78-1.77.38-3.55.71-5.31,1.14-7.16,1.78-14.28,3.66-21.35,5.77-6.5,1.93-12.91,4.13-19.36,6.2-6.62,2.13-13.23,4.25-19.88,6.28-6.83,2.09-13.67,4.24-20.63,5.83-3.42.78-6.84,1.58-10.31,2.13q-4.93.79-9.87,1.49c-3.27.41-6.54.75-9.82,1s-6.72.3-10.07.37c-7,.14-14,.16-21.08-.08s-14.1-.94-21.15-1.49c-6.53-.52-13-1.31-19.59-1.67s-12.9-.38-19.36-.39c-3,0-6,.07-8.95.31-3.37.27-6.71.9-10.05,1.38-5.29.67-10.6,1.12-15.93,1.28-2.93.08-5.86.11-8.79.16-2.73.05-5.45.06-8.16.33-2.66-.06-5.33-.11-8-.12-3.84,0-7.68,0-11.52.05-1.63,0-3.26.18-4.88.28s-3.25.26-4.89.45c-1.82.2-3.66.35-5.46.66l-6.07,1c-.68.12-1.35.33-2,.48l-3.37.8c-1.65.39-3.26.94-4.88,1.44a92.39,92.39,0,0,0-9.9,3.58c-1.62.71-3.29,1.34-4.87,2.14l-5.65,2.83c-1.25.62-2.45,1.33-3.66,2-1.63.91-3.3,1.76-4.89,2.73-2.93,1.78-5.92,3.49-8.77,5.4l-5.69,3.81c-1.26.84-2.47,1.76-3.69,2.66-1.61,1.18-3.25,2.33-4.82,3.56l-4.67,3.69c-2.86,2.25-5.59,4.63-8.36,7-1,.83-1.91,1.69-2.85,2.55-1.32,1.21-2.72,2.36-4,3.64-2.35,2.43-4.8,4.78-7,7.32-2.41,2.73-4.87,5.41-7.16,8.23l-4,4.93c-1.18,1.45-2.25,3-3.35,4.54-.83,1.13-1.69,2.25-2.46,3.43l-3.88,6c-1.75,2.69-3.31,5.53-4.94,8.29-.9,1.54-1.66,3.18-2.48,4.76-.7,1.34-1.46,2.67-2.08,4.05-1.56,3.46-3.19,6.89-4.6,10.41q-1.08,2.66-2.14,5.33c-.76,1.89-1.34,3.87-2,5.8-.46,1.32-.81,2.66-1.2,4-.47,1.61-1,3.2-1.4,4.83C8.62,170,7.72,173.39,7,176.82l-1.32,6.33c-.35,1.65-.59,3.33-.88,5-.66,3.74-1.18,7.48-1.71,11.24s-.95,7.53-1.39,11.3c-.39,3.31-.58,6.64-.86,10s-.45,6.54-.57,9.8L0,236.54c-.07,1.76,0,3.53,0,5.28,0,3.73,0,7.44.12,11.17,0,1.28,0,2.57.11,3.85q.28,3.49.56,7c.28,3.63.78,7.23,1.23,10.84s1.12,7.26,1.74,10.89c.22,1.29.56,2.56.85,3.83.4,1.73.7,3.53,1.21,5.24,1,3.28,1.82,6.62,3,9.82l2.42,6.48c.54,1.44,1.16,2.84,1.77,4.24l2.6,5.9c.74,1.69,1.59,3.34,2.39,5,.66,1.36,1.41,2.66,2.14,4a97.68,97.68,0,0,0,5.17,8.42A99.12,99.12,0,0,0,46,359.7c3.36,2.61,6.77,5.18,10.3,7.55,1.44,1,2.86,1.91,4.35,2.79,1.68,1,3.38,1.92,5.1,2.83,1.5.79,3.07,1.44,4.61,2.14s3.22,1.39,4.85,2l5.16,2.06c1.84.73,3.74,1.35,5.6,2,3.5,1.27,7,2.39,10.59,3.54s6.94,2.05,10.42,3.05,6.87,1.74,10.31,2.59c3.28.81,6.63,1.4,9.94,2.08,7.25,1.51,14.6,2.46,21.94,3.38,6.51.82,13.09,1.16,19.65,1.39l11.35.41,5.33.2c1.89.07,3.79,0,5.68,0h5c1.87,0,3.77-.19,5.64-.29,3.69-.19,7.35-.46,11-.76,7.19-.57,14.39-.94,21.6-1.32,3.48-.19,7-.43,10.42-.65s6.76-.32,10.14-.48c1.73-.08,3.47-.07,5.21-.1s3.5-.11,5.25-.1c3.56,0,7.12,0,10.67.08s7.07,0,10.6.12l11,.4c1.63.06,3.26.26,4.89.39l6.12.48c3.59.28,7.19.49,10.79.74,7.32.5,14.61,1.26,21.9,2,7.08.74,14.19,1.1,21.29,1.5,6.79.38,13.58.92,20.36,1.48l5.61.47c1.44.12,2.9.13,4.34.19,3.52.15,7,.31,10.56.35,7.08.09,14.17.17,21.25.08,3.49,0,7,0,10.46-.17s7.15-.19,10.72-.42,7.06-.38,10.58-.71l6.59-.62c1.33-.13,2.66-.22,4-.39l6.37-.85c2-.26,4-.44,5.94-.79l11.22-2c1.25-.22,2.49-.57,3.72-.86l6.8-1.59c1.22-.28,2.41-.67,3.61-1l6.2-1.75c1.51-.43,3-1,4.45-1.54,1.69-.59,3.41-1.11,5.07-1.76,3.38-1.33,6.79-2.61,10.13-4,3.5-1.49,7-3,10.44-4.56,1.35-.62,2.74-1.2,4.07-1.87l6.23-3.13c3.26-1.64,6.41-3.46,9.59-5.25,1-.57,2-1.1,3-1.72l5.75-3.63,4.82-3c1.16-.73,2.26-1.56,3.39-2.33,2.84-2,5.74-3.87,8.5-5.95,3.5-2.64,7.07-5.22,10.49-8a144.21,144.21,0,0,0,18.23-17.14c3.11-3.54,6.28-7,9.22-10.72a129.49,129.49,0,0,0,8.07-11.34c1.29-2,2.46-4.1,3.63-6.19,1.82-3.27,3.62-6.54,5.34-9.87.69-1.34,1.45-2.66,2.07-4l2.88-6.44c1.57-3.5,2.86-7.12,4.23-10.71.46-1.21.84-2.44,1.25-3.67.59-1.79,1.29-3.57,1.78-5.39l1.56-5.72c.39-1.42.85-2.84,1.14-4.29q.66-3.16,1.3-6.3c.3-1.45.69-2.92.89-4.39.6-4.17,1.29-8.33,1.74-12.52a109.92,109.92,0,0,0-.84-30.59,74.88,74.88,0,0,0-3.89-13.72,137.11,137.11,0,0,0-6.6-14.61c-2.56-4.9-5.59-9.5-8.56-14.15-2.18-3.41-4.45-6.76-6.53-10.23q-4.23-7-8.28-14.16c-2.12-3.7-4.08-7.49-5.95-11.32-1-2-2-4-2.9-6L614,104.25c-1.15-3.05-2.38-6.09-3.42-9.18l-2.11-6.23c-.5-1.47-.91-3-1.35-4.46-1.08-3.62-2.13-7.25-3.17-10.89-1-3.43-2.08-6.82-3.18-10.22-.54-1.69-1.24-3.34-1.91-5-.9-2.2-1.89-4.36-2.93-6.51A87.37,87.37,0,0,0,588,38.54,78.53,78.53,0,0,0,567,19.1c-2-1.29-4-2.47-6.12-3.59-1.46-.8-2.94-1.59-4.46-2.26l-6.22-2.75c-3.38-1.48-6.9-2.61-10.37-3.84-1.38-.49-2.83-.82-4.24-1.22s-3-.93-4.54-1.26l-6.39-1.36c-1.46-.31-2.95-.48-4.43-.69-2-.27-3.92-.65-5.89-.82L508.26.8c-3.5-.29-7-.42-10.5-.58-3-.14-6.05-.2-9.07-.2l-5.48,0c-1.73,0-3.47,0-5.2.06ZM261.62,40h0v0ZM646.52,180.82l.12.29-.09-.2,0-.08ZM324.9,211.14l-.16.12.16-.12Zm6.28,4.16-.19.44.16-.37,0-.07ZM526,376.89l-.31.13.31-.13Z"/></g></g></svg>