<svg xmlns="http://www.w3.org/2000/svg" viewBox="0 0 581.14 290.39"><defs><style>.cls-1{fill:#f5f5fc;}</style></defs><title>Asset 1</title><g id="Layer_2" data-name="Layer 2"><g id="Draw_Layer" data-name="Draw Layer"><path class="cls-1" d="M247.5,0l-6.2.08c-1.14,0-2.25.11-3.39.2L232,.77c-1.29.11-2.57.32-3.85.52l-5.69.84c-1.26.18-2.51.5-3.76.76l-4.94,1c-1.5.31-3,.79-4.45,1.18-1.3.34-2.64.63-3.92,1L199.93,7.9c-1,.33-2.05.64-3.05,1l-6,2.27c-2.71,1-5.36,2.21-8,3.34-1.52.64-3,1.35-4.51,2-1.2.55-2.41,1.09-3.6,1.66-2.82,1.35-5.66,2.69-8.47,4.06l-13,6.35c-3.82,1.87-7.62,3.77-11.48,5.55-4.34,2-8.68,4-13.05,5.91q-6.06,2.65-12.15,5.23c-5.37,2.23-10.74,4.44-16.14,6.58-5.86,2.32-11.73,4.61-17.55,7-6,2.47-12,4.93-17.87,7.65L59.75,69c-1.18.55-2.34,1.17-3.5,1.76l-4.61,2.34c-1.42.72-2.78,1.56-4.16,2.34-1.11.63-2.24,1.22-3.33,1.88l-5,3.08C38,81.09,37,81.86,35.91,82.6c-1.27.88-2.55,1.73-3.76,2.7l-4.47,3.6a76.6,76.6,0,0,0-6.6,6,67.26,67.26,0,0,0-7.66,9.39c-1.11,1.63-2.06,3.36-3,5.09-1.2,2.21-2.28,4.47-3.29,6.78A81.71,81.71,0,0,0,3,127.92a65.53,65.53,0,0,0-1.52,7.85q-.21,1.51-.42,3c-.08.58-.2,1.18-.24,1.77q-.23,2.92-.46,5.84c-.23,2.95-.28,5.92-.39,8.88-.06,1.64,0,3.31,0,5,0,1.27,0,2.53.09,3.8q.21,3,.41,5.9A87.13,87.13,0,0,0,2,180.38,120,120,0,0,0,5.35,193.2a88.37,88.37,0,0,0,5.05,12.46,102.09,102.09,0,0,0,6.21,10.75c1.12,1.72,2.31,3.35,3.53,5L24,226.56c1.49,2,3.07,3.93,4.7,5.84a146,146,0,0,0,40.47,32.73,123.49,123.49,0,0,0,23.68,9.73c2,.63,4.09,1.19,6.15,1.74,1.72.46,3.45.95,5.2,1.3l4.25.86,6.36,1.29c1.38.28,2.75.6,4.14.78l10.4,1.34c1,.13,2,.32,3,.39l4.57.31,6.51.44c.94.07,1.88.16,2.82.18,6.28.18,12.55.4,18.83.47,3.2,0,6.4.11,9.6.11l10.8,0c6.09,0,12.18-.1,18.27-.14,6.31,0,12.62-.07,18.93-.11s12.79,0,19.18,0c5.83,0,11.66.14,17.49.43,6.32.31,12.63.62,18.94,1.05s12.48.82,18.7,1.41c12.64,1.18,25.27,2.55,38,3.11,3,.13,6,.32,9,.38l11.21.21c1,0,2,0,3,0l7-.07c2.75,0,5.48-.17,8.23-.3s5.5-.21,8.24-.47l11-1c.64-.06,1.27-.15,1.91-.25a3,3,0,0,0,.69-.1l.54-.07,7.05-.95c1.31-.18,2.65-.31,4-.53l3.88-.66,6.42-1.09c1.13-.19,2.28-.35,3.41-.58l10.58-2.18c5.73-1.18,11.39-2.61,17.08-4,1.09-.26,2.16-.6,3.24-.89l6.75-1.86,3.69-1c1.13-.31,2.24-.71,3.35-1.07l10.12-3.23c1.09-.35,2.16-.81,3.22-1.21l6.59-2.47,3.22-1.21c1.27-.48,2.5-1.1,3.73-1.65l10.54-4.73c.79-.36,1.55-.77,2.32-1.16l6.28-3.18c.88-.45,1.8-.85,2.66-1.36l4.76-2.81,4.61-2.73c.92-.54,1.79-1.18,2.67-1.79l5.39-3.65c.82-.56,1.66-1.09,2.45-1.7l8.29-6.34a107.14,107.14,0,0,0,9.35-8.26,112.76,112.76,0,0,0,9-9.93,90.3,90.3,0,0,0,13.25-22.1,99.36,99.36,0,0,0,6.86-25.15c.27-2,.49-4,.64-6s.13-4,.08-6.05a69.2,69.2,0,0,0-1.65-13A66.11,66.11,0,0,0,569,120.27a90.83,90.83,0,0,0-7.78-9.68,114.2,114.2,0,0,0-9.71-9.14c-1.08-.93-2.22-1.8-3.33-2.7L544,95.36c-1.06-.86-2.22-1.62-3.34-2.41l-5.11-3.63c-.79-.56-1.61-1.05-2.42-1.57L527.3,84c-5.07-3.25-10.24-6.32-15.36-9.5s-10.4-6.55-15.51-10c-10.6-7.1-20.87-14.65-31.09-22.3-2.55-1.91-5.12-3.79-7.69-5.68-2.41-1.77-4.91-3.45-7.37-5.16-1.12-.77-2.31-1.46-3.46-2.18s-2.3-1.49-3.51-2.14l-5-2.72c-1.27-.7-2.62-1.26-3.93-1.87s-2.51-1.19-3.8-1.7l-5.1-2c-.56-.23-1.16-.39-1.73-.58l-2.88-1c-1.38-.46-2.78-.82-4.18-1.21-1.21-.34-2.42-.67-3.64-1-1.58-.37-3.15-.79-4.74-1.11L403,12.93c-1.56-.32-3.16-.53-4.73-.79-3.8-.62-7.64-1-11.47-1.35-3.53-.33-7.09-.45-10.63-.5-3.73,0-7.45,0-11.18.34-3.31.27-6.59.8-9.87,1.27-.63.08-1.27.16-1.9.22a18.89,18.89,0,0,1-3.55.05c-4.14-.73-8.21-1.82-12.32-2.7-2.23-.48-4.46-.93-6.68-1.42S326.23,6.9,324,6.32c-1.85-.48-3.71-1-5.59-1.32-2.08-.39-4.18-.7-6.29-1s-4.14-.57-6.18-1c-1-.21-2-.55-3.08-.72-1.55-.25-3.11-.43-4.67-.59a3,3,0,0,0-2.24.93,3.1,3.1,0,0,0-.64.93c-6.82-.58-13.62-1.27-20.43-1.87Q265.27.85,255.68.25c-1.46-.09-2.93-.11-4.39-.16C250.2,0,249.12,0,248,0Zm158,280.35-.21,0h0l.16,0Z"/></g></g></svg>