<?xml version="1.0" encoding="utf-8"?>
<!-- Generator: Adobe Illustrator 21.0.2, SVG Export Plug-In . SVG Version: 6.00 Build 0)  -->
<svg version="1.1" id="Layer_1" xmlns="http://www.w3.org/2000/svg" xmlns:xlink="http://www.w3.org/1999/xlink" x="0px" y="0px"
	 viewBox="0 0 457.2 104.7" style="enable-background:new 0 0 457.2 104.7;" xml:space="preserve">
<g>
	<g>
		<g>
			<path d="M0,45.9V2.7h13.5v38.5c0,6.8,0.7,11.5,2.7,14.9c2.7,4.7,8.8,7.4,14.9,7.4c11.5,0,18.2-8.1,18.2-22.3V2.7h13.5v70.9H50.7
				v-7.4c-3.4,5.4-11.5,9.5-20.9,9.5C12.2,75,0,63.5,0,45.9z M161.4,0.7c-11.5,0-18.2,3.4-23.6,11.5c-3.4-6.8-12.2-11.5-22.3-11.5
				c-8.8,0-15.5,2.7-20.3,9.5V2.7H83.1v70.9h13.5V34.4c0-8.8,0.7-12.2,4.1-16.2c3.4-3.4,8.1-5.4,13.5-5.4c6.1,0,10.8,2.7,13.5,6.8
				c2.7,3.4,2.7,5.4,2.7,14.9v39.2h13.5V34.4c0-8.1,0.7-12.2,3.4-15.5c2.7-3.4,8.1-5.4,13.5-5.4c10.8,0,16.9,7.4,16.9,20.9v39.2
				h13.5V30.4C190.4,12.2,179.6,0.7,161.4,0.7z M269.5,2.7h12.2v70.9h-12.2V62.1c-5.4,8.8-14.2,12.8-26.3,12.8
				c-20.3,0-36.5-16.2-36.5-37.1c0-9.5,3.4-18.2,8.8-25C222.2,4.7,231.6,0,243.8,0c10.8,0,20.9,4.7,25.7,12.2L269.5,2.7L269.5,2.7z
				 M268.1,38.5c0-14.9-10.8-25.7-24.3-25.7s-24.3,11.5-24.3,25.7c0,13.5,10.8,25,24.3,25C256.6,63.5,268.1,52,268.1,38.5z
				 M335.6,0.7c-9.5,0-16.2,3.4-20.9,9.5V2.7h-12.2v70.9h13.5V35.1c0-13.5,6.8-22.3,18.2-22.3c6.1,0,12.2,2.7,14.9,7.4
				c2,3.4,2.7,8.1,2.7,14.9v38.5h13.5V30.4C364.7,12.2,353.2,0.7,335.6,0.7z M457.2,37.8c0,20.3-17.6,37.1-37.8,37.1
				c-20.9,0-38.5-16.9-38.5-37.8c0-20.3,16.9-37.1,37.8-37.1C440.3,0.7,457.2,16.9,457.2,37.8z M444.4,38.5
				c0-14.2-10.8-25.7-25-25.7c-13.5,0-25,11.5-25,25c0,14.2,11.5,25.7,25,25.7C432.9,63.5,444.4,52,444.4,38.5z M3.4,104.7h59.4
				V94.5H3.4V104.7z"/>
		</g>
	</g>
</g>
</svg>
