<?xml version="1.0" encoding="utf-8"?>
<!-- Generator: Adobe Illustrator 18.1.1, SVG Export Plug-In . SVG Version: 6.00 Build 0)  -->
<svg version="1.1" id="Layer_1" xmlns="http://www.w3.org/2000/svg" xmlns:xlink="http://www.w3.org/1999/xlink" x="0px" y="0px"
	 viewBox="0 0 1224 792" enable-background="new 0 0 1224 792" xml:space="preserve">
<path d="M478.8,195.6v-6.4h2v5.7c0,1,0.1,1.7,0.4,2.2c0.4,0.7,1.3,1.1,2.2,1.1c1.7,0,2.7-1.2,2.7-3.3v-5.7h2v10.5h-1.8v-1.1
	c-0.5,0.8-1.7,1.4-3.1,1.4C480.6,199.9,478.8,198.2,478.8,195.6z M502.7,188.9c-1.7,0-2.7,0.5-3.5,1.7c-0.5-1-1.8-1.7-3.3-1.7
	c-1.3,0-2.3,0.4-3,1.4v-1.1h-1.8v10.5h2v-5.8c0-1.3,0.1-1.8,0.6-2.4c0.5-0.5,1.2-0.8,2-0.8c0.9,0,1.6,0.4,2,1
	c0.4,0.5,0.4,0.8,0.4,2.2v5.8h2v-5.8c0-1.2,0.1-1.8,0.5-2.3c0.4-0.5,1.2-0.8,2-0.8c1.6,0,2.5,1.1,2.5,3.1v5.8h2v-6.4
	C507,190.6,505.4,188.9,502.7,188.9z M518.7,189.2h1.8v10.5h-1.8V198c-0.8,1.3-2.1,1.9-3.9,1.9c-3,0-5.4-2.4-5.4-5.5
	c0-1.4,0.5-2.7,1.3-3.7c1-1.2,2.4-1.9,4.2-1.9c1.6,0,3.1,0.7,3.8,1.8V189.2z M518.5,194.5c0-2.2-1.6-3.8-3.6-3.8
	c-2,0-3.6,1.7-3.6,3.8c0,2,1.6,3.7,3.6,3.7C516.8,198.2,518.5,196.5,518.5,194.5z M528.5,188.9c-1.4,0-2.4,0.5-3.1,1.4v-1.1h-1.8
	v10.5h2V194c0-2,1-3.3,2.7-3.3c0.9,0,1.8,0.4,2.2,1.1c0.3,0.5,0.4,1.2,0.4,2.2v5.7h2v-6.4C532.8,190.6,531.1,188.9,528.5,188.9z
	 M546.5,194.4c0,3-2.6,5.5-5.6,5.5c-3.1,0-5.7-2.5-5.7-5.6c0-3,2.5-5.5,5.6-5.5C544,188.9,546.5,191.3,546.5,194.4z M544.6,194.5
	c0-2.1-1.6-3.8-3.7-3.8c-2,0-3.7,1.7-3.7,3.7c0,2.1,1.7,3.8,3.7,3.8C542.9,198.2,544.6,196.5,544.6,194.5z M479.3,204.3h8.8v-1.5
	h-8.8V204.3z"/>
</svg>
